<svg width="50" height="50" viewBox="0 0 50 50" fill="none" xmlns="http://www.w3.org/2000/svg">
<path d="M8.35938 9.76074V36.3231C8.35938 37.3054 8.56143 38.2774 8.95208 39.1775C10.0398 41.6828 13.5287 43.3394 16.179 43.8562C21.5133 44.8966 23.9784 45.7078 25.0022 47.224C26.026 45.7078 28.4944 44.9 33.8288 43.8562C36.4757 43.3394 39.9646 41.6863 41.0557 39.1775C41.4463 38.2774 41.6484 37.3054 41.6484 36.3231V9.76074H8.35938Z" fill="#213366"/>
<path d="M42.1634 1.0473V36.3269C42.1634 37.3879 41.9479 38.4215 41.5269 39.3935C40.9881 40.6359 39.8667 41.7859 38.2839 42.7202C36.9941 43.4835 35.4046 44.0858 33.9228 44.3733C28.4369 45.4446 26.2951 46.2386 25.4263 47.5221L24.9986 48.1552L24.5709 47.5221C23.7054 46.2386 21.5602 45.4446 16.0744 44.3733C14.5926 44.0824 13.0031 43.48 11.7133 42.7202C10.1305 41.7859 9.01244 40.6359 8.47025 39.3935C8.04929 38.4215 7.83377 37.3913 7.83377 36.3269V1.0473H17.1049V2.67643H20.3614V1.0473H29.6324V2.67643H32.8889V1.0473H42.16H42.1634ZM43.1939 0H31.8618V1.62913H30.6663V0H19.3342V1.62913H18.1387V0H6.80664V36.3269C6.80664 37.5351 7.04911 38.709 7.53068 39.8145C8.16043 41.2622 9.42666 42.5799 11.198 43.6238C12.5855 44.4418 14.2895 45.0921 15.8824 45.4001C20.9271 46.3858 23.0521 47.1216 23.7222 48.1108L24.1499 48.7439L24.9986 50L25.8472 48.7439L26.2749 48.1108C26.9451 47.1182 29.07 46.3858 34.1148 45.4001C35.7043 45.0886 37.4117 44.4418 38.7991 43.6238C40.5705 42.5765 41.8367 41.2588 42.4665 39.8145C42.9481 38.709 43.1905 37.5351 43.1905 36.3269V0H43.1939Z" fill="#213366"/>
<path d="M33.4112 1.57422V3.20335H29.1175V1.57422H20.887V3.20335H16.5932V1.57422H8.35938V3.20335V9.39132H41.645V3.20335V1.57422H33.4112Z" fill="#C2012E"/>
<path d="M11.1192 7.9157L9.87988 4.86279H10.4254L11.1427 6.60145L11.3785 7.28253C11.4761 6.9745 11.557 6.74862 11.6142 6.60145L12.3315 4.86279H12.8838L11.6445 7.9157H11.1225H11.1192Z" fill="white"/>
<path d="M15.2041 7.90886V4.86279H17.5311V5.33168H15.7429V6.07438H17.4301V6.53984H15.7429V7.43997H17.5951V7.90886H15.2041Z" fill="white"/>
<path d="M20.0186 7.90886V4.86279H21.2781C21.7024 4.86279 22.0324 4.97231 22.258 5.18793C22.487 5.40698 22.6015 5.6842 22.6015 6.02304C22.6015 6.23181 22.5476 6.43032 22.4399 6.61171C22.3321 6.79311 22.1806 6.93001 21.9853 7.02242L22.6419 7.91228H21.9853L21.4666 7.17986C21.3757 7.1867 21.2174 7.19012 20.9884 7.19012H20.5574V7.91228H20.0219L20.0186 7.90886ZM20.554 6.71439H21.3084C21.5306 6.71439 21.7091 6.64936 21.8404 6.51588C21.9718 6.38583 22.0391 6.22154 22.0391 6.02304C22.0391 5.82453 21.9718 5.66025 21.8404 5.53019C21.7091 5.40013 21.5306 5.33168 21.3117 5.33168H20.554V6.71439V6.71439Z" fill="white"/>
<path d="M25.6302 4.86279H25.0947V7.90886H25.6302V4.86279Z" fill="white"/>
<path d="M29.055 7.90886V5.33168H28.001V4.86279H30.6479V5.33168H29.5939V7.90886H29.055Z" fill="white"/>
<path d="M32.3418 7.90886L33.6922 4.86279H34.2007L35.5511 7.90886H35.0056L34.7766 7.38179H33.1231L32.8874 7.90886H32.3418V7.90886ZM33.315 6.95055H34.588L34.2479 6.17363C34.2108 6.08464 34.1637 5.98196 34.1098 5.85875C34.0559 5.73896 34.0155 5.63971 33.9886 5.56441L33.9482 5.44805C33.8471 5.7287 33.7528 5.9717 33.6585 6.17705L33.315 6.94712V6.95055Z" fill="white"/>
<path d="M37.7153 7.51925L37.9241 7.10512C38.2137 7.3447 38.5471 7.46106 38.9175 7.46106C39.0893 7.46106 39.2408 7.42342 39.3688 7.3447C39.5001 7.26598 39.5641 7.1633 39.5641 7.02982C39.5641 6.94084 39.5304 6.86896 39.4631 6.80736C39.3957 6.74575 39.325 6.70468 39.2509 6.68415C39.1768 6.66361 39.0758 6.63281 38.9445 6.59516C38.8131 6.55751 38.7054 6.52671 38.6144 6.50275C38.5269 6.47879 38.4258 6.43772 38.3181 6.38638C38.2103 6.33504 38.1228 6.28028 38.0588 6.21868C37.9948 6.1605 37.9375 6.08178 37.8938 5.98937C37.85 5.89696 37.8264 5.79086 37.8264 5.67449C37.8264 5.40411 37.9342 5.19534 38.1463 5.04132C38.3585 4.89073 38.6144 4.81201 38.9142 4.81201C39.3048 4.81201 39.6618 4.92153 39.9783 5.14058L39.7695 5.55813C39.5069 5.387 39.2206 5.30486 38.9142 5.30486C38.8367 5.30486 38.7592 5.31513 38.6818 5.33566C38.6043 5.3562 38.5336 5.39385 38.4696 5.45203C38.4056 5.51021 38.372 5.58208 38.372 5.66423C38.372 5.77375 38.4225 5.85589 38.5235 5.91407C38.6245 5.97226 38.7828 6.02702 39.0017 6.07835C39.16 6.12969 39.2981 6.17419 39.4193 6.21526C39.5405 6.25633 39.655 6.31109 39.7695 6.37954C39.884 6.45141 39.9716 6.5404 40.0322 6.64992C40.0928 6.75944 40.1231 6.88265 40.1231 7.02298C40.1231 7.32074 40.0019 7.55005 39.7628 7.71091C39.5237 7.87177 39.2375 7.95049 38.9108 7.95049C38.4191 7.95049 38.0217 7.80332 37.7119 7.5124" fill="white"/>
<path d="M21.6601 25.0119C21.6601 25.0119 21.6365 24.9914 21.623 24.9777C21.8217 24.4027 22.1383 24.3479 22.6771 24.3616C22.337 24.5772 22.0002 24.7928 21.6601 25.0119Z" fill="#213366"/>
<path d="M17.9725 40.2694C17.9219 40.5604 17.8748 40.8033 18.0465 41.0566C18.1711 40.9471 18.2924 40.8342 18.417 40.7246C18.6797 40.6151 18.8076 40.3824 19.0063 40.1804C18.912 40.5261 18.8514 40.7828 19.0972 41.0669C19.2589 40.93 19.4172 40.7931 19.5822 40.6596C19.6462 40.663 19.7304 40.663 19.7876 40.6391C19.9493 40.5672 20.0435 40.4508 20.1008 40.2763C20.4611 40.1599 20.7777 40.1702 21.0976 40.3995C21.2054 40.4748 21.2525 40.6117 21.2929 40.7417C21.6836 40.2284 21.4142 39.6465 20.8484 39.4891C20.2692 38.8559 21.4243 37.3774 21.8284 36.8537C21.8351 37.2576 21.7004 37.528 21.5085 37.8634C22.0237 37.6478 22.3672 37.3089 22.704 36.8503C23.5863 37.7094 24.4383 38.5616 25.4553 39.2427C26.0379 39.2906 26.597 39.4446 27.1627 39.5883C26.2366 39.5644 25.1994 39.359 24.8054 40.444C24.6808 40.0059 24.7885 39.6944 25.0411 39.3556C24.5696 39.0339 23.6739 38.9244 23.2731 39.1708C22.5693 39.6089 22.4043 40.4679 22.7915 41.0498C22.9195 41.2449 23.071 41.0703 23.2091 41.1045C23.1115 40.6391 23.1754 40.1907 23.5257 39.9066C23.6941 39.7697 23.987 39.7697 23.9837 39.7697C23.8692 39.869 23.7648 39.934 23.6974 40.0812C23.5493 40.4063 23.5055 40.8239 23.7749 41.0806C23.8254 41.1285 23.9365 41.1593 24.0072 41.1593C26.4252 41.1216 28.8364 41.1388 31.2544 41.084C31.3723 41.084 31.5507 41.1216 31.5912 40.9676C31.6551 40.7383 31.9683 40.4611 31.9717 40.4577C32.5846 40.2455 33.1302 40.1154 33.5275 39.6397C33.7666 39.3488 33.8811 38.9723 33.9249 38.5958C34.2381 35.7277 30.729 34.4306 33.2413 33.8966C33.1908 34.0027 33.0898 34.0678 33.0527 34.1807C33.6959 34.1978 34.2112 33.8008 34.0361 33.0718C33.9653 32.7741 33.7767 32.4866 33.7835 32.158C34.2954 30.9327 35.0767 31.3982 34.0967 29.7896C33.7599 29.639 33.6488 30.6281 33.3356 30.8232C33.3693 30.6178 33.4568 30.4673 33.5612 30.2893C33.0157 30.5802 32.4331 30.7137 32.4162 31.5933C32.4028 32.4421 33.504 32.7946 32.3017 33.1471C31.9448 33.2532 31.6215 33.4928 31.4699 33.8385C30.8132 35.3239 33.9013 36.1213 33.0561 38.7019C32.918 39.0373 32.625 39.0031 32.3522 38.9586C32.3522 38.9552 32.2748 38.4589 32.2344 38.1954C31.901 36.1316 31.0187 34.5127 29.19 33.6228C30.1734 33.3217 30.9479 32.8083 31.6013 31.9663C30.8334 32.0416 30.0959 32.0382 29.3348 31.8979C30.8941 31.8089 32.2647 31.4256 33.046 29.882C32.0593 29.9573 31.1567 29.8136 30.2037 29.5363C33.1302 29.8272 37.1376 28.8792 37.8044 26.3842C35.7165 27.3048 31.0389 27.9893 31.0389 27.9893C31.0389 27.9893 38.6295 26.7709 38.7507 23.3552C37.6125 24.0876 36.1038 24.8817 34.2381 25.4327C32.9483 25.816 32.1704 25.9118 32.1704 25.9118C32.1704 25.9118 38.8215 24.4059 39.4984 20.4632C37.3565 21.7158 35.1743 23.1088 32.8877 24.0329C35.5784 22.503 39.7476 20.4187 40.1247 16.8866C39.303 17.9442 38.0941 19.2653 36.4001 20.494C35.2619 21.3188 34.1708 21.9075 33.2379 22.3284C33.9855 21.9656 35.3461 21.175 36.4742 19.6315C38.1109 17.3897 38.1883 15.0179 38.1782 14.1965C37.4239 16.0001 36.1307 18.218 33.8677 19.9019C33.5949 20.1038 33.3221 20.2886 33.0493 20.4597C33.5444 20.0696 34.6153 19.1112 35.1777 17.4787C36.0263 15.0076 35.0598 12.8651 34.8477 12.4167C34.8645 13.2998 34.7769 14.8604 33.9788 16.5512C33.5208 17.5198 32.9651 18.2488 32.5071 18.7553C32.753 18.194 33.046 17.3247 33.0628 16.2397C33.0999 13.9706 31.9043 12.3722 31.5002 11.876C31.7225 12.9917 31.8841 14.5148 31.6417 16.2774C31.5474 16.9756 31.4026 17.6053 31.2409 18.1598C31.2409 17.5779 31.1635 16.76 30.7998 15.8735C29.8939 13.6557 27.907 12.7282 27.3715 12.4989C27.8767 13.4195 28.3919 14.5421 28.8061 15.853C28.988 16.4245 29.1294 16.9722 29.2439 17.4924C28.961 16.9961 28.3111 16.0173 27.1021 15.2883C25.5766 14.3676 24.0948 14.4087 23.5391 14.4497C25.7483 15.5792 26.9708 17.0543 27.55 17.8689C29.1799 20.1654 30.5775 24.0808 29.0217 27.3288C28.6108 28.1844 28.0989 28.7834 27.7554 29.1393C27.6914 29.0229 27.6275 28.9134 27.5635 28.8039C27.4995 28.6944 27.4456 28.5814 27.3816 28.4719C27.4826 28.5472 27.5769 28.6328 27.678 28.7081C27.816 27.8353 27.6948 27.1337 27.2671 26.3705C27.4523 26.4937 27.6342 26.6203 27.816 26.7469C27.6376 25.7065 27.0954 25.0494 26.3478 24.3888C26.6744 24.4367 26.9876 24.5462 27.3075 24.6181C26.6407 23.5024 25.6001 23.2765 24.4248 23.1738C24.6875 23.0061 24.9536 22.8384 25.2162 22.6741C23.5493 22.5338 20.7878 22.3661 21.1448 24.8714C19.9998 25.2102 19.3094 26.0727 20.2557 27.1303C20.2557 27.0824 20.2119 27.0344 20.249 26.9865C20.6632 26.415 21.7105 26.5313 22.3302 26.5313C22.3369 26.5313 22.3369 26.5211 22.3369 26.545C22.3369 26.569 22.2359 26.6032 22.2224 26.6443C22.2123 26.6888 22.1652 26.7367 22.246 26.812C22.2729 26.8359 22.4211 27.0208 22.4413 27.1337C22.4615 27.2466 22.3436 27.4931 22.31 27.5341C20.6295 29.5363 19.4273 32.6577 19.727 35.3067C20.0132 34.8823 20.2389 34.4271 20.4645 33.9651C20.3029 34.9097 20.1648 35.8338 19.8381 36.7339C20.1985 36.6347 20.4477 36.4567 20.68 36.1453C19.8415 38.5616 17.0598 39.8553 17.1272 40.7007C17.2013 40.6254 17.272 40.5501 17.3461 40.4782C17.4033 40.4919 17.538 40.5124 17.6929 40.4543C17.8377 40.4029 17.9253 40.3071 17.9657 40.2626M21.6499 25.0083C21.6499 25.0083 21.6263 24.9878 21.6129 24.9741C21.8116 24.3991 22.1281 24.3443 22.6669 24.358C22.3268 24.5736 21.99 24.7892 21.6499 25.0083Z" fill="#F3D332"/>
<path d="M24.9849 19.0429L20.8528 19.5665L22.5434 20.6686L20.5363 20.5556L21.8059 22.1369L19.9335 21.3976L20.6609 23.3005L19.105 22.0068L19.2195 24.0466L18.1318 22.3285L17.6199 25.5423L17.108 22.3285L16.0203 24.0466L16.1348 22.0068L14.5756 23.3005L15.3063 21.3942L13.4339 22.1369L14.7035 20.5522L12.6964 20.6686L14.387 19.5665L10.2549 19.0429L14.387 18.5226L12.6964 17.4172L14.7035 17.5335L13.4339 15.9523L15.3063 16.6916L14.5789 14.7886L16.1348 16.0789L16.0203 14.0425L17.108 15.7606L17.6199 12.5469L18.1318 15.7606L19.2195 14.0425L19.105 16.0789L20.6609 14.7886L19.9335 16.695L21.8059 15.9523L20.5363 17.537L22.5434 17.4206L20.8528 18.5226L24.9849 19.0429Z" fill="white"/>
<path d="M19.2278 19.0432C19.2278 19.9468 18.5071 20.6792 17.6181 20.6792C16.729 20.6792 16.0117 19.9468 16.0117 19.0432C16.0117 18.1397 16.7324 17.4072 17.6181 17.4072C18.5038 17.4072 19.2278 18.1397 19.2278 19.0432Z" fill="#213366"/>
</svg>
